<?xml version="1.0" encoding="UTF-8" standalone="no"?>
<!DOCTYPE svg PUBLIC "-//W3C//DTD SVG 1.1//EN" "http://www.w3.org/Graphics/SVG/1.1/DTD/svg11.dtd">
<svg width="100%" height="100%" viewBox="0 0 1080 1080" version="1.1"
    xmlns="http://www.w3.org/2000/svg" xmlns:xlink="http://www.w3.org/1999/xlink"
    xml:space="preserve" xmlns:serif="http://www.serif.com/"
    style="fill-rule:evenodd;clip-rule:evenodd;stroke-linejoin:round;stroke-miterlimit:2;">
    <g transform="matrix(2.37721,0,0,2.37721,-836.218,-939.504)">
        <path
            d="M578.922,395.213L599.728,424.41L626.15,400.177L640.432,433.061L671.315,414.852L678.447,449.987L712.441,438.596L712.113,474.446L747.732,470.372L739.957,505.371L775.645,508.792L760.764,541.409L794.961,552.175L773.623,580.985L804.834,598.626L777.973,622.37L804.834,646.115L773.623,663.755L794.961,692.566L760.764,703.332L775.645,735.949L739.957,739.37L747.732,774.368L712.113,770.294L712.441,806.144L678.447,794.754L671.315,829.889L640.432,811.679L626.15,844.563L599.728,820.331L578.922,849.527L558.115,820.331L531.693,844.563L517.411,811.679L486.528,829.889L479.396,794.754L445.402,806.144L445.73,770.294L410.111,774.368L417.886,739.37L382.198,735.949L397.079,703.332L362.882,692.566L384.22,663.755L353.009,646.115L379.87,622.37L353.009,598.626L384.22,580.985L362.882,552.175L397.079,541.409L382.198,508.792L417.886,505.371L410.111,470.372L445.73,474.446L445.402,438.596L479.396,449.987L486.528,414.852L517.411,433.061L531.693,400.177L558.115,424.41L578.922,395.213Z"
            style="fill:rgb(255,222,24);"/>
    </g>
</svg>